<svg width="192" height="192" viewBox="0 0 32 32" fill="none" xmlns="http://www.w3.org/2000/svg">
  <title>Notunic</title>
  <rect width="32" height="32" rx="8" fill="#e07a5f"></rect>
  <g transform="translate(16, 16) scale(0.625) translate(-12, -12)">
    <path d="M13.4 2H6a2 2 0 0 0-2 2v16a2 2 0 0 0 2 2h12a2 2 0 0 0 2-2v-7.4" fill="none" stroke="white" stroke-width="2" stroke-linecap="round" stroke-linejoin="round"></path>
    <path d="M2 6h4" fill="none" stroke="white" stroke-width="2" stroke-linecap="round" stroke-linejoin="round"></path>
    <path d="M2 10h4" fill="none" stroke="white" stroke-width="2" stroke-linecap="round" stroke-linejoin="round"></path>
    <path d="M2 14h4" fill="none" stroke="white" stroke-width="2" stroke-linecap="round" stroke-linejoin="round"></path>
    <path d="M2 18h4" fill="none" stroke="white" stroke-width="2" stroke-linecap="round" stroke-linejoin="round"></path>
    <path d="M21.378 5.626a1 1 0 1 0-3.004-3.004l-5.01 5.012a2 2 0 0 0-.506.854l-.837 2.87a.5.5 0 0 0 .62.62l2.87-.837a2 2 0 0 0 .854-.506z" fill="white"></path>
  </g>
</svg>